/* XPM */
static char *cda789d274da4b609a72cbb246437cc1[] = {
/* columns rows colors chars-per-pixel */
"32 32 256 2 ",
"   c black",
".  c white",
"X  c #E5E2DC",
"o  c #EFEDE9",
"O  c #DBD7CF",
"+  c #D4CFC5",
"@  c #CDC7BB",
"#  c #FFB7B8",
"$  c #FEB8B9",
"%  c #FEB9BA",
"&  c #FFBBBC",
"*  c #FEBCBD",
"=  c #FEB7BA",
"-  c #FFBBBE",
";  c #CFA2A4",
":  c #FEB3B7",
">  c #9B797B",
",  c #FEACB3",
"<  c #F4ACB2",
"1  c #867879",
"2  c #908586",
"3  c #FE9FAA",
"4  c #F6B0B7",
"5  c #FCA3AF",
"6  c #FFA7B3",
"7  c #E59EA7",
"8  c #AA767D",
"9  c #FFB7C1",
"0  c #9C9495",
"q  c #FD95A5",
"w  c #FE97A7",
"e  c #FD98A7",
"r  c #FE99A9",
"t  c #FB9AA8",
"y  c #FFAEBB",
"u  c #EBA0AB",
"i  c #FC879B",
"p  c #FF92A6",
"a  c #FF95A7",
"s  c #FD95A7",
"d  c #FD96A7",
"f  c #D17C8B",
"g  c #EA8FA0",
"h  c #FFA0B1",
"j  c #AA6F7A",
"k  c #785A5F",
"l  c #FC7C96",
"z  c #FA7C96",
"x  c #FB7F99",
"c  c #FA839B",
"v  c #F9849B",
"b  c #F2859B",
"n  c #FF8EA4",
"m  c #F88BA0",
"M  c #F593A7",
"N  c #FF9AAD",
"B  c #DA8B9B",
"V  c #F97592",
"C  c #F67593",
"Z  c #FA7996",
"A  c #FE7C98",
"S  c #FD7B97",
"D  c #FF7D9B",
"F  c #FE7E99",
"G  c #FD7D99",
"H  c #FD7E99",
"J  c #F57B95",
"K  c #FE819E",
"L  c #F77E99",
"P  c #FF85A1",
"I  c #FF94AB",
"U  c #9B898D",
"Y  c #FB6D91",
"T  c #F46D8F",
"R  c #FA7192",
"E  c #FF7697",
"W  c #F67394",
"Q  c #FF799A",
"!  c #F77695",
"~  c #E36D89",
"^  c #FF7E9E",
"/  c #D96B86",
"(  c #FF87A4",
")  c #FF8CA8",
"_  c #C06B7F",
"`  c #C87488",
"'  c #B77183",
"]  c #76565E",
"[  c #7D797A",
"{  c #E04E77",
"}  c #DF547B",
"|  c #F25D86",
" . c #EF6088",
".. c #F5638B",
"X. c #E95E84",
"o. c #FC688F",
"O. c #E56084",
"+. c #E96488",
"@. c #DB6081",
"#. c #FC7195",
"$. c #D36582",
"%. c #DC6B89",
"&. c #FF83A3",
"*. c #A3566B",
"=. c #935F6D",
"-. c #9B6674",
";. c #6B5057",
":. c #963753",
">. c #9C3A56",
",. c #C1496C",
"<. c #C75173",
"1. c #903B54",
"2. c #E05E84",
"3. c #D95F83",
"4. c #914057",
"5. c #E6668A",
"6. c #B55773",
"7. c #633845",
"8. c #7F7175",
"9. c #992B4E",
"0. c #A83358",
"q. c #9A3958",
"w. c #BA4B6D",
"e. c #933F59",
"r. c #81374F",
"t. c #96425C",
"y. c #FF7FA7",
"u. c #974D64",
"i. c #804356",
"p. c #7B4C5B",
"a. c #846B73",
"s. c #8C2A4B",
"d. c #B83964",
"f. c #6E2941",
"g. c #762D46",
"h. c #72364A",
"j. c #815B68",
"k. c #A8A2A4",
"l. c #D1CECF",
"z. c #8C6B77",
"x. c #8D777F",
"c. c #761D3F",
"v. c #712240",
"b. c #571D34",
"n. c #651C3A",
"m. c #421227",
"M. c #7E6570",
"N. c #826673",
"B. c #877C81",
"V. c #725F68",
"C. c #270114",
"Z. c #583849",
"A. c #452034",
"S. c #644757",
"D. c #442F3B",
"F. c #5F5159",
"G. c #888185",
"H. c #7F7A7D",
"J. c #48253B",
"K. c #70636B",
"L. c #483944",
"P. c #7A727A",
"I. c #AFA9AF",
"U. c #8E8C8E",
"Y. c #797879",
"T. c #C7C3C8",
"R. c #534657",
"E. c #838084",
"W. c #3E2D45",
"Q. c #A19BA4",
"!. c #CAC7CC",
"~. c #C5C2C7",
"^. c #BAB7BC",
"/. c #BFBDC1",
"(. c #5E566D",
"). c #BBBABD",
"_. c #AEADB0",
"`. c #B1B0B4",
"'. c #868295",
"]. c #49455A",
"[. c #918E9E",
"{. c #949495",
"}. c #9FA0A2",
"|. c #1F2122",
" X c #B6B8B8",
".X c #B0B2B2",
"XX c #A3A4A4",
"oX c #A1A4A1",
"OX c #B3B5B2",
"+X c #CDCFCC",
"@X c #C7C8C4",
"#X c #CCCCC8",
"$X c #AEAEAA",
"%X c #CFCFCB",
"&X c #CDCDCA",
"*X c #B0B0AE",
"=X c #B7B7B6",
"-X c #D5D4CF",
";X c #D2D1CD",
":X c #ECEBE7",
">X c #BDBBB4",
",X c #D8D5CD",
"<X c #C9C7C1",
"1X c #BEBDBA",
"2X c #E1E0DD",
"3X c #C5C1B7",
"4X c #C1BEB7",
"5X c #D1CEC8",
"6X c #E4E1DB",
"7X c #E3E0DA",
"8X c #D3CEC5",
"9X c #B7B3AC",
"0X c #E0DDD8",
"qX c #DFDCD7",
"wX c #DCD9D4",
"eX c #D5D2CD",
"rX c #CCC8C2",
"tX c #C5C2BE",
"yX c #B6B4B2",
"uX c #BFBEBD",
"iX c #BAB9B8",
"pX c #A4A19F",
"aX c #A7A5A4",
"sX c #9D9B9A",
"dX c #B4AEAC",
"fX c #83807F",
"gX c #CDCAC9",
"hX c #FFD3CA",
"jX c #FFD8CF",
"kX c #FFCFC6",
"lX c #D2B3AD",
"zX c #FFC8C2",
"xX c #FFCBC5",
"cX c #E7B1AD",
"vX c #FFC3C0",
"bX c #FFC4C1",
"nX c #FFC7C3",
"mX c #FEC5C2",
"MX c #FFC8C5",
"NX c #FFCAC7",
"BX c #FFBEBC",
"VX c #FFC2BF",
"CX c #FFC1BF",
"ZX c #FFC8C6",
"AX c #FFCAC8",
"SX c #FFBABA",
"DX c #FEBAB9",
"FX c #FFBCBB",
"GX c #FFBDBC",
"HX c #FDBCBB",
"JX c #FFBFBE",
"KX c #FFC0C0",
"LX c #FFC6C6",
"PX c #E6B4B4",
"IX c #BAB5B5",
"UX c None",
/* pixels */
"+ + + + + + + + + + + @ @ + @ @ + + + + + + + + + + + @ @ + @ @ ",
"O X X X X X X X o o X + O O O X O X X X X X o X o o X + O O O X ",
"X X X X X X X X X X o + X X X X X X X X X X X X X X o + X X X X ",
"o X o o o o 6XuXE.H.yX,XX X X X o X o o @XE.H.&Xo o o O X X X X ",
"+ + + + + + 9Xp.4.e.h.[ 3X+ + + + + + 4Xj.4.1.j.4X+ + @ @ + + + ",
"X X X X qXtX=.~ ) ) @.r.K.#XX X X X -XF.6.) ( $.z.;XX X X X X X ",
"X X X X ;XH.>.) x z P K q.S.{.sXsXoXV.e.! G l &.f.*XX X X X X X ",
"X O O O <XG.*.I c z V A E 6.] k ] ;.j 5 p ! Z ^ h.=XX X X O O O ",
"+ @ @ + 4XH.*.h i Z C v 5 - NXNXAXAXNXNX* m R #.f.pX+ + + + + + ",
"o + O X %XG.t.a i m 5 : bXzXvXvXvXvXvXVXnX: 3 W n.$XX X X X o X ",
"o + O O %XB.9.n 3 , vXbXJXBXBXBXBXBXGXJXJXbXzX) n.aXX X X X X X ",
"o + O O ,XpXb.f CXJXFXFXFXGXGX& GX& GXGXGXVXNX_ A.tXX X o X o o ",
"+ @ @ + 8XdXA.8 LXGX% % FX& & & & & FXFX& CXAX-.L.tX+ + + + @ @ ",
"X o X o 1XU *.u * % $ % SXSXSX& & % % & & & KXPX;.uXX X o o o X ",
"X X X X XXM.$.y DX# # = $ $ $ % & % % & SX& JX9 i.aXX X X X X X ",
"X X X X aXa.,.h GX# # # $ $ $ % % % % % % & CXN g.*XX X X X X X ",
"+ + + + sXV.d.P , $ $ # $ SXSXSXSX% % SX& HX, ( v.pX+ @ @ + @ @ ",
"O X X X 1Xx.0...L r w q q s d d d w d d e r K  .n.iXX + O O O X ",
"X X X X wXIXZ.0.o.Q Z S G A G G H H F F H D ..c.B.qXo + X X X X ",
"o X o o o :X=XZ.s.{ | Q Q C C C T T T R D X.v.P.2XgXsX<XX X X X ",
"+ + + + + + + >X0 ' $.w.<.+.+.+.5.5.5.O.,.-.0 3X9Xa.8 2 @ + + + ",
"X X X X X X X X 7X;XdXD.e.W T b < < 4 u p.U.,X@ U.> cX8.X X X X ",
"X X X X X X X X X X OXp./ D R t kXhXhXhXlX1 Y.fXU PXj k.X X X X ",
"X O X X o o o o X +Xa.$.( S V t nXxXxXhXjX7 ` ` 6 _ N.5XO O O O ",
"+ + @ @ + + + + + $XS.,.K Z Y p CXxXMXmXZXB u.i.h.M.tX+ + + + + ",
"o @ X o X X X X X wX{.i.J 3.d.%.: vXg %.I u.R.*X1X-XX X X X o X ",
"o @ o X X X X X X X <X] J 6.C.4.9 PX7.9.y.e.U.X X X X X X X X X ",
"o + X X X O X O O X &Xj.} t.  b.M ; |.m.2.:.G.rX6XX X X o X o o ",
"+ @ @ + + + + rXIXI.[.R.m.J.].W.A.L.].W.m.A.(.'.Q.yXrX+ + + @ @ ",
"X X X X o o X 0Xl.T.^.^. X/.!.`.}._.~.!..X)./.)./.l.qXX X O @ O ",
"X X X X X X X X X X X X X X X X X X X X X X X X X X X X X O @ X ",
"X X X X X X X X X X X X X X X X X X X X O X X O O X O O O O @ X "
};
