/* XPM */
static char *_19e9ab366464b17b4ebba13e3a0ad6fhB9cVDMtlJ1BMaL9[] = {
/* columns rows colors chars-per-pixel */
"32 32 178 2 ",
"   c #000001",
".  c #01000B",
"X  c #0C0D17",
"o  c #18081A",
"O  c #13111A",
"+  c #1B1627",
"@  c #281D21",
"#  c #39182A",
"$  c #2D2326",
"%  c #37282C",
"&  c #262839",
"*  c #362B36",
"=  c #3D363C",
"-  c #401A2C",
";  c #451E32",
":  c #561631",
">  c #75003F",
",  c #422531",
"<  c #45333C",
"1  c #4C363E",
"2  c #692B3C",
"3  c #393C47",
"4  c #3E3E52",
"5  c #7A0246",
"6  c #4B3640",
"7  c #443943",
"8  c #4F3B43",
"9  c #4C3E49",
"0  c #573743",
"q  c #662B43",
"w  c #752D46",
"e  c #663A4F",
"r  c #7D314D",
"t  c #713952",
"y  c #46474E",
"u  c #4D454F",
"i  c #524047",
"p  c #54434C",
"a  c #5C444C",
"s  c #4F4B52",
"d  c #524A52",
"f  c #5C4953",
"g  c #53575F",
"h  c #604F4D",
"j  c #6D4D58",
"k  c #6B5E5E",
"l  c #5A5760",
"z  c #6C5E61",
"x  c #7A5C61",
"c  c #6D656A",
"v  c #716267",
"b  c #766467",
"n  c #68627A",
"m  c #786A73",
"M  c #6F7279",
"N  c #7A7377",
"B  c #843754",
"V  c #B63767",
"C  c #8D485F",
"Z  c #9E4F65",
"A  c #815365",
"S  c #975F74",
"D  c #B84B6C",
"F  c #BA4D78",
"G  c #BA5678",
"H  c #836569",
"J  c #836B6E",
"K  c #91646F",
"L  c #857C7D",
"P  c #967276",
"I  c #B4677A",
"U  c #C3446D",
"Y  c #D24D7B",
"T  c #C65073",
"R  c #D5577E",
"E  c #7B748C",
"W  c #7D7690",
"Q  c #857F82",
"!  c #867F92",
"~  c #D45F81",
"^  c #DD5C83",
"/  c #E15A82",
"(  c #C86383",
")  c #D46885",
"_  c #C4768D",
"`  c #D5728D",
"'  c #C67D93",
"]  c #E46E8D",
"[  c #EC6C8F",
"{  c #F36F8F",
"}  c #E3708C",
"|  c #E97593",
" . c #F57694",
".. c #F37997",
"X. c #F77C9A",
"o. c #7D8085",
"O. c #898789",
"+. c #908087",
"@. c #8C8C92",
"#. c #959391",
"$. c #9B9796",
"%. c #95969A",
"&. c #9E9B9C",
"*. c #AC8686",
"=. c #A49D9E",
"-. c #B99F9A",
";. c #9995A1",
":. c #9F99A6",
">. c #A29DAA",
",. c #A4A2A2",
"<. c #ACA6A7",
"1. c #BCA4A6",
"2. c #B9AEAF",
"3. c #B3B0AF",
"4. c #AAA5B2",
"5. c #AEB3B6",
"6. c #BBB6B5",
"7. c #BBB9B4",
"8. c #BEBDB9",
"9. c #CB9D9E",
"0. c #E4859C",
"q. c #E8889B",
"w. c #F6889F",
"e. c #ED8EA3",
"r. c #FE8FA5",
"t. c #E592A1",
"y. c #E79DA8",
"u. c #F995A7",
"i. c #F59BAB",
"p. c #D7A7A7",
"a. c #C2BEB7",
"s. c #D8B5B4",
"d. c #FEA2B2",
"f. c #F3A9B0",
"g. c #FEADB5",
"h. c #FFAEBA",
"j. c #EAB8B8",
"k. c #EBBCBB",
"l. c #F2B5B5",
"z. c #FCB3B8",
"x. c #F6BDBE",
"c. c #FDBCBD",
"v. c #C7C4BC",
"b. c #CDC7BB",
"n. c #F2C0BD",
"m. c #FAC1BE",
"M. c #FFB6C0",
"N. c #FFBDC4",
"B. c #C6C4C3",
"V. c #CDCAC4",
"C. c #CECCC9",
"Z. c #D4CFC5",
"A. c #D3CDCA",
"S. c #D5D3CE",
"D. c #DBD7CF",
"F. c #D7D6D1",
"G. c #DBDAD6",
"H. c #DBDAD8",
"J. c #F4C0C0",
"K. c #FFC6C3",
"L. c #FFC9C5",
"P. c #FFC4CB",
"I. c #FECDCA",
"U. c #FFD3CD",
"Y. c #E1DFDA",
"T. c #FDD6D0",
"R. c #FFDBD3",
"E. c #FFDED8",
"W. c #E5E2DC",
"Q. c #FFE7DB",
"!. c #EEE6E6",
"~. c #EAE8E5",
"^. c #EFEDE9",
"/. c #FFE6E6",
"(. c #FFEDE4",
"). c #FFEBEC",
"_. c #FFF3E8",
"`. c #FDF2F4",
/* pixels */
"Z.Z.Z.Z.Z.Z.Z.Z.Z.Z.Z.b.b.Z.b.b.Z.Z.Z.Z.Z.Z.Z.Z.Z.Z.Z.b.b.Z.b.b.",
"D.W.W.W.W.W.W.W.^.^.W.Z.D.D.D.W.D.W.W.W.W.W.^.W.^.^.W.Z.D.D.D.W.",
"W.W.W.W.W.W.W.W.W.W.^.Z.W.W.W.W.W.W.W.W.W.W.W.W.W.W.^.Z.W.W.W.W.",
"^.W.^.^.^.^.W.^.C.^.^.D.W.W.W.W.^.W.^.^.^.^.W.W.W.^.^.D.W.W.W.W.",
"Z.Z.Z.Z.Z.Z.Z.L v N a.b.b.Z.Z.Z.Z.Z.Z.Z.Z.Z.O.N c b.Z.b.b.Z.Z.Z.",
"W.W.W.W.W.W.&.P I.+.Q #.6.W.W.W.W.W.W.W.,.$.L s.9.c G.W.W.W.W.W.",
"W.W.W.W.W.W.7 f.h._.-.h v 6.6.8.8.8.8.3.a b _.N.M.1 C.W.W.W.W.W.",
"W.D.D.D.D.D.s t.[ _ 0.I.s.k z z z z k J I.d.' ) u.8 S.W.W.D.D.D.",
"Z.b.b.Z.Z.Z.d t.R > F J.Q.(.(.(.(.(.(.Q.I.0.5 V u.8 b.Z.Z.Z.Z.Z.",
"^.Z.D.W.W.W.d q./ F l.R.R.R.R.R.R.R.R.R.U.L.( Y r.1 S.W.W.W.^.W.",
"^.Z.D.D.W.W.u 0.^ K.L.U.R.R.R.R.R.R.R.R.I.L.U.| X.0 S.W.W.W.W.W.",
"^.Z.D.D.D.D.c G ` L.L.U.T.U.U.U.U.U.U.U.I.L.I.t.) a F.W.^.W.^.^.",
"Z.b.b.Z.Z.Z.a.< K.I.L.L.I.L.K.L.L.L.L.L.K.K.K.U.x #.Z.Z.Z.Z.b.b.",
"W.^.W.^.W.^.m p.I.p.* $ b U.L.L.L.L.U.*.@ % H U.n.f F.W.^.^.^.W.",
"W.W.W.W.W.W.d l.I.j O.3   J U.L.L.U.*.l @.  < J.I.6 S.W.W.W.W.W.",
"W.W.W.W.D.W.d x.A.. %.y   i U.L.L.U.H y %..   &./.1 S.W.W.W.W.W.",
"Z.Z.Z.Z.Z.Z.d x.H.X       i U.K.K.U.P     .   5./.1 v.b.b.Z.b.b.",
"D.W.W.W.W.W.7 y.).@.    O 1.U.i.e.U.k.*     g `.P., A.Z.D.D.D.W.",
"W.W.W.W.W.W.<.C h.).6.2.s.I.j.K K p.U.k.2.2.!.P.) +.~.Z.W.W.W.W.",
"^.W.^.^.^.^.Y.9 D e.N.I.I.K.m.j.j.m.K.L.I.K.i.) e G.^.D.W.W.W.W.",
"Z.Z.Z.Z.Z.Z.Z.Z.$.t V i.z.g.g.g.g.g.g.g.g.~ B L <.Z.Z.b.b.Z.Z.Z.",
"W.W.W.W.W.W.W.W.W.W.A.% 0 V ^ ^ ^ ^ U r % A.A.7.= ,.W.W.W.W.W.W.",
"W.W.W.W.W.W.W.W.W.W.C.7 y.| ...... .[ y.p B.6.< T.a C.W.W.W.W.W.",
"W.D.W.W.^.^.^.^.W.~.9 m.L.K.L.K.K.L.K.L.L.p S I E.0 C.D.D.D.D.D.",
"Z.Z.b.b.Z.Z.Z.Z.Z.Z.# { q.K.z.K.K.z.K.u. .; U D A <.V.Z.Z.Z.Z.Z.",
"^.b.W.^.W.W.W.W.W.W.=.: } c.] c.K.} c.w.w w : m C.W.W.W.W.W.^.W.",
"^.b.^.W.W.W.W.W.W.W.W.p } L.R ; - T L.r.# , @.F.W.W.W.W.W.W.W.W.",
"^.Z.W.W.W.D.W.D.D.W.W.N B d.q & 3 q d.Z p 8.Y.D.W.W.W.W.^.W.^.^.",
"Z.b.b.Z.Z.Z.Z.Z.V.! E 4 o 2 + n E * 2 o 4 W E C.Z.Z.Z.Z.Z.Z.b.b.",
"W.W.W.W.^.^.W.B.>.>.:.4.@.o.;.>.:.;.M O.>.>.>.4.4.~.W.W.W.D.b.D.",
"W.W.W.W.W.W.W.W.W.W.W.W.W.W.W.W.W.W.W.W.W.W.W.W.W.W.W.W.W.D.b.W.",
"W.W.W.W.W.W.W.W.W.W.W.W.W.W.W.W.W.W.W.W.D.W.W.D.D.W.D.D.D.D.b.W."
};
