/* XPM */
static char *_e1d94d45991411397e43fef862fedf5[] = {
/* columns rows colors chars-per-pixel */
"32 32 256 2 ",
"   c black",
".  c white",
"X  c #E5E2DC",
"o  c #EFEDE9",
"O  c #DBD7CF",
"+  c #D4CFC5",
"@  c #CDC7BB",
"#  c #FFBDBE",
"$  c #BE9091",
"%  c #E6AAAC",
"&  c #FFC5C7",
"*  c #B18B8C",
"=  c #A17F80",
"-  c #A98687",
";  c #C7A0A1",
":  c #FFB3B7",
">  c #FFC1C5",
",  c #F0B5B9",
"<  c #DFCDCE",
"1  c #FFB0B6",
"2  c #FEBEC3",
"3  c #FDA4AE",
"4  c #F0B0B6",
"5  c #9B777B",
"6  c #84676A",
"7  c #8E7275",
"8  c #D9B0B4",
"9  c #FDA4B0",
"0  c #FFADB8",
"q  c #F9A9B3",
"w  c #F3A8B1",
"e  c #EBA9B2",
"r  c #DDA9B0",
"t  c #FE9BAB",
"y  c #947378",
"u  c #91787C",
"i  c #FC95A6",
"p  c #F492A4",
"a  c #CD808D",
"s  c #F4A5B2",
"d  c #F7859D",
"f  c #E68799",
"g  c #FF9FB2",
"h  c #B8A8AB",
"j  c #A2989A",
"k  c #FF84A0",
"l  c #CC7488",
"z  c #8E7C80",
"x  c #ED6084",
"c  c #F1688B",
"v  c #894355",
"b  c #EE7E9A",
"n  c #E28BA1",
"m  c #574348",
"M  c #68575B",
"N  c #A49C9E",
"B  c #DC5D80",
"V  c #EA6488",
"C  c #E96A8C",
"Z  c #F27092",
"A  c #E46C8B",
"S  c #804354",
"D  c #8F4C5E",
"F  c #874C5C",
"G  c #B9697E",
"H  c #8F5161",
"J  c #B98190",
"K  c #82777A",
"L  c #D4436F",
"P  c #BC4166",
"I  c #DC527C",
"U  c #EE5B86",
"Y  c #BC4F6E",
"T  c #97445C",
"R  c #8C475B",
"E  c #9D5067",
"W  c #6E6064",
"Q  c #95878B",
"!  c #A69FA1",
"~  c #C7446E",
"^  c #964C63",
"/  c #7D495A",
"(  c #6C4551",
")  c #D34F7D",
"_  c #C14C74",
"`  c #CE527B",
"'  c #7D364E",
"]  c #6A3547",
"[  c #6C696A",
"{  c #6F1B3A",
"}  c #C23568",
"|  c #AC2F5D",
" . c #752643",
".. c #CA4D7A",
"X. c #B45779",
"o. c #835264",
"O. c #A29499",
"+. c #530B27",
"@. c #9D2955",
"#. c #595154",
"$. c #966D7E",
"%. c #72686C",
"&. c #AB3467",
"*. c #371725",
"=. c #968F92",
"-. c #7C1745",
";. c #4C2135",
":. c #9D5676",
">. c #553242",
",. c #624E57",
"<. c #961A56",
"1. c #6E485B",
"2. c #A39B9F",
"3. c #614152",
"4. c #8F8289",
"5. c #30001A",
"6. c #5B4F56",
"7. c #8E8B8D",
"8. c #D1CED0",
"9. c #B2AEB1",
"0. c #3B3039",
"q. c #473A45",
"w. c #756E75",
"e. c #ABA6AB",
"r. c #999799",
"t. c #828082",
"y. c #5B4C5C",
"u. c #302832",
"i. c #231D26",
"p. c #130A19",
"a. c #514A57",
"s. c #4A444F",
"d. c #636066",
"f. c #B6B2BA",
"g. c #B2B0B4",
"h. c #847D8D",
"j. c #9E9AA3",
"k. c #ADA9B3",
"l. c #ABA7B1",
"z. c #55525D",
"x. c #A5A3AB",
"c. c #8C8999",
"v. c #6B6975",
"b. c #00000A",
"n. c #040406",
"m. c #25252E",
"M. c #5C5C62",
"N. c #A1A1A8",
"B. c #080B14",
"V. c #3C444D",
"C. c #0F171F",
"Z. c #040B0F",
"A. c #B5BBBC",
"S. c #9E9F9F",
"D. c #90908C",
"F. c #EDECE8",
"G. c #EAE9E5",
"H. c #E3E1DB",
"J. c #C5C4C1",
"K. c #E1E0DD",
"L. c #DCDBD8",
"P. c #D1CDC3",
"I. c #D5D3CE",
"U. c #CECAC1",
"Y. c #C9C4BA",
"T. c #D3CEC4",
"R. c #D9D5CD",
"E. c #B6B5B3",
"W. c #C7C2B9",
"Q. c #BFBBB4",
"!. c #D9D5CE",
"~. c #CAC5BD",
"^. c #AEABA6",
"/. c #E1DED9",
"(. c #E0DDD8",
"). c #E4E1DC",
"_. c #E0DEDB",
"`. c #DAD7D3",
"'. c #C9C5C1",
"]. c #807E7C",
"[. c #BEBCBA",
"{. c #B9B5B2",
"}. c #B6B2AF",
"|. c #C1BEBC",
" X c #FFEBDF",
".X c #F7E6DC",
"XX c #FCEBE2",
"oX c #B0ACAA",
"OX c #B7B5B4",
"+X c #CCCAC9",
"@X c #FFE6DD",
"#X c #FFE2D8",
"$X c #F6DED6",
"%X c #C4B7B3",
"&X c #CBBFBB",
"*X c #FEDED5",
"=X c #FFE1D8",
"-X c #F9E0D9",
";X c #F7DFD8",
":X c #FFD9CF",
">X c #FFDCD3",
",X c #FFE1DA",
"<X c #FFE2DB",
"1X c #FED7CF",
"2X c #FFD3CB",
"3X c #FFDAD3",
"4X c #FFDBD5",
"5X c #FFD0C9",
"6X c #FFD4CD",
"7X c #FFD3CD",
"8X c #FCD0CA",
"9X c #CBB1AD",
"0X c #FFCDC7",
"qX c #FFD1CB",
"wX c #FBCDC8",
"eX c #F5CAC5",
"rX c #F7CEC9",
"tX c #FFDDD9",
"yX c #FEC6C1",
"uX c #FFC8C3",
"iX c #FFCAC5",
"pX c #FFCBC6",
"aX c #F6C3BF",
"sX c #ECBDB9",
"dX c #FFCEC9",
"fX c #FAD0CC",
"gX c #FFD6D2",
"hX c #FDC1BE",
"jX c #FFC6C2",
"kX c #FEC5C1",
"lX c #FFC9C5",
"zX c #FDC6C3",
"xX c #FBC6C2",
"cX c #E6BCB9",
"vX c #F9D3D1",
"bX c #F3D7D5",
"nX c #B8A6A5",
"mX c #FFC4C2",
"MX c #D0A09E",
"NX c #FFC8C6",
"BX c #DDAFAD",
"VX c #E1B5B3",
"CX c #F2C4C2",
"ZX c #AF9796",
"AX c #B29C9B",
"SX c #AF9998",
"DX c #EAB2B1",
"FX c #D8A7A7",
"GX c #CA9C9C",
"HX c #FECAC9",
"JX c #FFCCCC",
"KX c #CBA2A2",
"LX c #FFD2D1",
"PX c #C9ACAC",
"IX c #E4D9D9",
"UX c None",
/* pixels */
"+ + + + + + + + + + + @ @ + @ @ + + + + + + + + + + + @ @ + @ @ ",
"O X X X X X X X o o X + O O O X O X X X X X o X o o X + O O O X ",
"X X X X X X X X X X o + X X X X X X X X X X X X X X o + X X X X ",
"o X o o o o X o +XS.J.R.X X X X o X o _.J.e.}.G.o o o O X X X X ",
"+ + + + + + + Y.z *.( nXW.U.~.W.Y.~.Q.].m 5 y }.P.+ + @ @ + + + ",
"X X X X X X O D.E x U  .C.d.=.t.t.7.K 9X@XHX% W !.X X X X X X X ",
"X X X X X X O [ T ~ &.:.AXAXZXAXSXAXcXHX4 t d F [./.X X X X X X ",
"X O O O O O O ].;.o.8 bX-X;X$X;X;X.XfXX.-...d D E.G.X X X O O O ",
"+ @ @ + + + + 7.6.nXXX@X,X,X<X,X<X X8XG <.) d H ^.U.+ + + + + + ",
"o + O X X X I.=.%X.X@X*X*X*X>X3X3X1XpX, n C Z H E.(.X X X X o X ",
"o + O O X {.j 9X X@X1X4X=X=X#X1X5XiXuX:XzXb U D E.(.X X X X X X ",
"o + O O O [ $ CXrXwX2X7XVX* KX5XiXyXjXiXxXs b R oX(.X X o X o o ",
"+ @ @ + + #.% * KXaX6XVXu z.0.GXxXlXyXkXlXdXw v ^.U.+ + + + @ @ ",
"X o X o X w.MXm = eX6X5 M.A.B.q.cXqXyXyXiXmXf ' [.G.X X o o o X ",
"X X X X X %.$ i.= 6X7X6 b.i.n.m.< gXhXyXpX# C  .|./.X X X X X X ",
"X X X X O %.$ i.- LXgX6       V.IXgXhXuXuX1 C  .[./.X X X X X X ",
"+ + + + + 6.G 7.J a % - i.Z.m.h vX0XkXhX: t c  .^.P.+ @ @ + @ @ ",
"O X X X X E.' e 8 * MXsXPXnXPXwXpXjX1 t i Z P >.K.o X + O O O X ",
"X X X X X L.O.^ a % sXdXtX4X4XuXjX: t k V | 1.OXX I.+X+ X X X X ",
"o X o o o o `.=.J s 0 9 3 3 3 p f A B B _ $.J.F.L.j Q O X X X X ",
"+ + + + + + + U.&X8 r J Y c V I } | @.-./ {.+ @ r.* GX@ @ + + + ",
"X X X X X X X X X X X S.{ U I I ` _ X.] d.OX|.W.D.FXFXX X X X X ",
"X X X X X X X X X X H.! ' g i p : NXJXLXKXM #.6.; q H X X X X X ",
"X O X X o o o o X o H.N / 4X2X0X0X5XqX2XwXDXa l f R 4.O O O O O ",
"+ + @ @ + + + + + + T.j ' 2 & lXuX2 2 > 7XBX>.m ,.oX~.+ + + + + ",
"o @ X o X X X X X X H.2.{ c l hXe G T G hXFXu.E.J.(.X X X X o X ",
"o @ o X X X X X X X X '.' L ;.uXMX] +.S VXeXW X ).X X X X X X X ",
"o + X X X O X !.R.`.8.g.3.+.p.6 M *.5.;.W 7 w.J.).H.).X o X o o ",
"+ @ @ + + + + '.|.9.j.c.v.q.z.s.a.y.y.y.a.a.h.l.|.'.P.+ + + @ @ ",
"X X X X o o X +Xf.k.x.l.k.N.e.r.j.N.N.x.j.j.l.l.k.8.(.X X O @ O ",
"X X X X X X X X X X X X X X X H.X X X X X X X X X X X X X O @ X ",
"X X X X X X X X X X X X X X X X X X X X O X X O O X O O O O @ X "
};
