/* XPM */
static char *_fcf899b790b47dcba0aa08c684eaf62[] = {
/* columns rows colors chars-per-pixel */
"32 32 256 2 ",
"   c black",
".  c white",
"X  c #E5E2DC",
"o  c #EFEDE9",
"O  c #DBD7CF",
"+  c #D4CFC5",
"@  c #CDC7BB",
"#  c #FFBDBE",
"$  c #E6AAAC",
"%  c #DAA4A6",
"&  c #FFC5C7",
"*  c #A17F80",
"=  c #AA8889",
"-  c #FFB3B7",
";  c #FFC1C5",
":  c #F0B5B9",
">  c #B68C8E",
",  c #DFCDCE",
"<  c #B9AAAB",
"1  c #FFB0B6",
"2  c #FEBEC3",
"3  c #B1878A",
"4  c #D9B1B4",
"5  c #FDA4AE",
"6  c #F0B0B6",
"7  c #9B777B",
"8  c #84676A",
"9  c #8E7275",
"0  c #FDA4B0",
"q  c #FFADB8",
"w  c #F9A9B3",
"e  c #F3A8B1",
"r  c #EBA9B2",
"t  c #DDA9B0",
"y  c #A69E9F",
"u  c #FE9BAB",
"i  c #947378",
"p  c #91787C",
"a  c #FC95A6",
"s  c #F492A4",
"d  c #CD808D",
"f  c #F4A5B2",
"g  c #F7859D",
"h  c #E68799",
"j  c #FF9FB2",
"k  c #A2989A",
"l  c #A09698",
"z  c #817C7D",
"x  c #FF84A0",
"c  c #CC7488",
"v  c #ED6084",
"b  c #F1688B",
"n  c #894355",
"m  c #EE7E9A",
"M  c #E28BA1",
"N  c #746065",
"B  c #DC5D80",
"V  c #EA6488",
"C  c #E96A8C",
"Z  c #F27092",
"A  c #E46C8B",
"S  c #804354",
"D  c #8F4C5E",
"F  c #874C5C",
"G  c #B9697E",
"H  c #8F5161",
"J  c #BA8291",
"K  c #D4436F",
"L  c #BC4166",
"P  c #DC527C",
"I  c #EE5B86",
"U  c #BC4F6E",
"Y  c #97445C",
"T  c #8C475C",
"R  c #9D5067",
"E  c #574349",
"W  c #C7446E",
"Q  c #964C63",
"!  c #6C4551",
"~  c #67545A",
"^  c #D34F7D",
"/  c #C14B74",
"(  c #CE527B",
")  c #7D364E",
"_  c #6A3547",
"`  c #907E84",
"'  c #C9C6C7",
"]  c #6F1B3A",
"[  c #C23568",
"{  c #AC2F5D",
"}  c #752643",
"|  c #CA4D7A",
" . c #B45779",
".. c #835264",
"X. c #530B27",
"o. c #9D2955",
"O. c #78485B",
"+. c #926979",
"@. c #AB3467",
"#. c #371725",
"$. c #A6989E",
"%. c #716A6D",
"&. c #958E91",
"*. c #7C1745",
"=. c #4C2135",
"-. c #9D5676",
";. c #553242",
":. c #961A56",
">. c #5C5257",
",. c #A39B9F",
"<. c #949293",
"1. c #5F3F50",
"2. c #30001A",
"3. c #91868C",
"4. c #5A4D55",
"5. c #B2AEB1",
"6. c #3B3039",
"7. c #676166",
"8. c #473A45",
"9. c #AEACAE",
"0. c #5B4C5C",
"q. c #302832",
"w. c #776F79",
"e. c #231D26",
"r. c #130A19",
"t. c #514A57",
"y. c #4A444F",
"u. c #848088",
"i. c #ABA7B0",
"p. c #ADA9B4",
"a. c #9B98A0",
"s. c #A8A5AD",
"d. c #BAB7BF",
"f. c #A09DA6",
"g. c #55525D",
"h. c #8D8B92",
"j. c #A4A2AA",
"k. c #6B6975",
"l. c #00000A",
"z. c #040406",
"x. c #25252E",
"c. c #606066",
"v. c #5C5C62",
"b. c #080B14",
"n. c #737578",
"m. c #3C444D",
"M. c #0F171F",
"N. c #040B0F",
"B. c #B5BBBC",
"V. c #9FA0A0",
"C. c #E2E2DE",
"Z. c #CCCCCA",
"A. c #9D9D9C",
"S. c #DAD9D3",
"D. c #EDECE8",
"F. c #CDCAC1",
"G. c #D9D6CE",
"H. c #E3E1DB",
"J. c #E0DED8",
"K. c #DCDBD8",
"L. c #D7D5D0",
"P. c #CFCBC2",
"I. c #CDC9C0",
"U. c #D1CDC4",
"Y. c #C8C3B9",
"T. c #D3CEC4",
"R. c #D6D3CD",
"E. c #EBE9E5",
"W. c #CEC9C0",
"Q. c #BFBBB4",
"!. c #CAC4BA",
"~. c #CAC5BD",
"^. c #A8A5A0",
"/. c #C9C6C1",
"(. c #E4E1DC",
"). c #B6B2AC",
"_. c #BEBCB9",
"`. c #D1CDC8",
"'. c #AEAAA6",
"]. c #B7B5B3",
"[. c #B1ADAA",
"{. c #BAB7B5",
"}. c #FFEBDF",
"|. c #F7E6DC",
" X c #FCEBE2",
".X c #B7B5B4",
"XX c #B5B3B2",
"oX c #C6C1BF",
"OX c #FFE6DD",
"+X c #C5B8B3",
"@X c #FFE2D8",
"#X c #F6DED6",
"$X c #C1BEBD",
"%X c #FEDED5",
"&X c #FFE1D8",
"*X c #F9E0D9",
"=X c #F7DFD8",
"-X c #FFDCD3",
";X c #FFE1DA",
":X c #FFE2DB",
">X c #FFD8CF",
",X c #FFD3CB",
"<X c #FFD5CE",
"1X c #FFDAD3",
"2X c #FFDBD5",
"3X c #FFD0C9",
"4X c #FFD3CD",
"5X c #FCD0CA",
"6X c #CBB1AD",
"7X c #BCA9A6",
"8X c #FFCDC7",
"9X c #FFD1CB",
"0X c #FBCDC8",
"qX c #F5CAC5",
"wX c #F7CEC9",
"eX c #FFDDD9",
"rX c #FEC6C1",
"tX c #FFC8C3",
"yX c #FFCAC5",
"uX c #FFCBC6",
"iX c #F6C3BF",
"pX c #ECBDB9",
"aX c #FFCEC9",
"sX c #FAD0CC",
"dX c #FFD6D2",
"fX c #FDC1BE",
"gX c #FFC6C2",
"hX c #FEC5C1",
"jX c #FFC9C5",
"kX c #FDC6C3",
"lX c #FBC6C2",
"zX c #E6BCB9",
"xX c #F9D3D1",
"cX c #F3D7D5",
"vX c #FFC4C2",
"bX c #D0A09E",
"nX c #FFC8C6",
"mX c #E1B5B3",
"MX c #F2C4C2",
"NX c #AF9796",
"BX c #B29C9B",
"VX c #AF9998",
"CX c #EAB2B1",
"ZX c #BF9292",
"AX c #CA9C9C",
"SX c #FECAC9",
"DX c #FFCCCC",
"FX c #D8ADAD",
"GX c #CAA2A2",
"HX c #FFD2D1",
"JX c #C9ACAC",
"KX c #B6A3A3",
"LX c #E4D9D9",
"PX c #D4D2D2",
"IX c #C3C2C2",
"UX c None",
/* pixels */
"+ + + + + + + + + + + @ @ + @ @ + + + + + + + + + + + @ @ + @ @ ",
"O X X X X X X X o o X + O O O X O X X X X X o X o o X + O O O X ",
"X X X X X X X X X X o + X X X X X X X X X X X X X X o + X X X X ",
"o X o o o o X o o E.{.y _.L.X X o X o o o E._.A.Z.o o O X X X X ",
"+ + + + + + + @ !.).i 7 E z Q.~.Y.Y.~.W.I.< ! #.` P.+ @ @ + + + ",
"X X X X X X O @ L.N $ & OX6Xz h.u.z <.c.M.} I v R A.X X X X X X ",
"X X X X X X O !.].F g u 6 0XzXVXVXBXNXBXBX-.@.W Y n.X X X X X X ",
"X O O O O O O Y.[.D g | *. .sX|.=X=X#X=X*XcX4 ..=.h.X X X O O O ",
"+ @ @ + + + + Y.^.H g ^ :.G 5X}.:X;X:X;X;XOX X7X>.&.+ + + + + + ",
"o + O X X X X J.].H Z C M : uX>X1X1X-X%X%X%XOX|.+X&.R.X X X o X ",
"o + O O X X X J.].T v m kX>XtXyX3X>X@X&X&X2X<X:X X6Xk ].X X X X ",
"o + O O O O X R.XXT m f lXyXgXrXyX3XGX= mX4X,X0XwXMX> %.o X o o ",
"+ @ @ + + + + P.'.n e aXjXhXrXjXlXAX6.g.p mX4XiXGX3 $ 4.+ + @ @ ",
"X o X o X o o E.IX) h vXyXrXrX9XzX8.b.B.v.7 <XqX* E bX%.o o o X ",
"X X X X X X X J.$X} C # uXrXfXdX, x.z.e.l.8 4X4X* e.ZX%.X X X X ",
"X X X X O X X R.].} C 1 tXtXfXdXLXm.      8 dXHX= e.ZX%.X X X X ",
"+ + + + + + + U.'.} b u - fXhX8XxX< x.N.e.= $ d J 3.G 4.@ + @ @ ",
"O X X X X X o X C.;.L Z a u 1 gXuX0XJXKXJXpXbX> 4 r ) '.O O O X ",
"X X X X X X $XR.X .XO.{ V x u - gXtX2XeXeXaXpX$ d Q $.P.X X X X ",
"o X o o o o 3.k K.D.Z.+./ B B A h s 5 5 5 0 q f J &.C.O X X X X ",
"+ + + + + + AX> A.+ T.[.O.*.o.{ [ P V b U J t FX+XF.+ @ @ + + + ",
"X X X X X X % % &.S./..X7._ U / ( P P I ] V.O @ X X X X X X X X ",
"X X X X X X H w GX>.>.~ GXHXDXnX- s a j ) y G.@ O X X X X X X X ",
"X O X X o o 3.T h c d CX5X,X9X3X8X8X,X-XO.l G.@ O O X O O O O O ",
"+ + @ @ + + ~.[.>.E ;.FX4X; 2 2 tXjX& 2 ) k T.@ @ + + + + + + + ",
"o @ X o X X X K.oX].q.FXfXG Y G r fXc b ] ,.H.X X X X X X X o X ",
"o @ o X X X X X X X 7.qXmXS X._ bXjX=.K ) /.X X X X X X X X X X ",
"o + X X X O (.G.O Z.w.9 N =.2.#.~ 8 r.X.1.9.PX`.J.H.X X o X o o ",
"+ @ @ + + + U./.$Xi.u.t.t.0.0.0.t.y.g.8.k.h.f.5.$X/.+ + + + @ @ ",
"X X X X o o J.' s.i.s.a.f.j.j.f.a.a.j.j.s.p.s.p.d.PXX X X O @ O ",
"X X X X X X X X X X X X X X X X X X X X X X X X X X X X X O @ X ",
"X X X X X X X X X X X X X X X X X X X X O X X O O X O O O O @ X "
};
