/* XPM */
static char *_55158b9b2214763f23d5186f1a2eaa20lxTWrVMYlmpUQrO[] = {
/* columns rows colors chars-per-pixel */
"32 32 185 2 ",
"   c #331017",
".  c #352A2D",
"X  c #65001F",
"o  c #72041F",
"O  c #66291C",
"+  c #690623",
"@  c #5B2A24",
"#  c #4C353E",
"$  c #563235",
"%  c #5A343B",
"&  c #79292A",
"*  c #7D3021",
"=  c #782939",
"-  c #6F3637",
";  c #25590B",
":  c #3A4520",
">  c #3D4F3A",
",  c #685A21",
"<  c #7B4539",
"1  c #4F7321",
"2  c #5B663C",
"3  c #4E3642",
"4  c #563A41",
"5  c #602940",
"6  c #753549",
"7  c #5D424E",
"8  c #5F4453",
"9  c #64454B",
"0  c #7C4451",
"q  c #6F535B",
"w  c #5A775D",
"e  c #727A5C",
"r  c #6F6168",
"t  c #74616A",
"y  c #811C30",
"u  c #873B25",
"i  c #82353F",
"p  c #DF0036",
"a  c #DB1434",
"s  c #E6063C",
"d  c #D42C39",
"f  c #9F451B",
"g  c #B94616",
"h  c #9C4B25",
"j  c #95442A",
"k  c #9A533D",
"l  c #B45426",
"z  c #BB5A2A",
"x  c #A85331",
"c  c #B55932",
"v  c #B86834",
"b  c #C85E23",
"n  c #C8662D",
"m  c #CA6D36",
"M  c #CD7134",
"N  c #C7773A",
"B  c #D67636",
"V  c #D67739",
"C  c #893846",
"Z  c #993F52",
"A  c #E10942",
"S  c #F50B42",
"D  c #F51140",
"F  c #F7294C",
"G  c #8C484E",
"H  c #8E5C4D",
"J  c #915643",
"K  c #9C4758",
"L  c #976950",
"P  c #AA644C",
"I  c #B96C42",
"U  c #AB6E5A",
"Y  c #B16C51",
"T  c #A97855",
"R  c #BC775B",
"E  c #855661",
"W  c #B6586A",
"Q  c #986871",
"!  c #877374",
"~  c #9D7275",
"^  c #B57E6C",
"/  c #A57E7F",
"(  c #FE455D",
")  c #FF4C5A",
"_  c #FB595D",
"`  c #D67740",
"'  c #C07F53",
"]  c #CA677B",
"[  c #D4677C",
"{  c #E36862",
"}  c #FF7261",
"|  c #FA6D7E",
" . c #FD7E71",
".. c #3AA60A",
"X. c #6A9217",
"o. c #45AF0D",
"O. c #6BCD0C",
"+. c #D7833F",
"@. c #BE8458",
"#. c #92857D",
"$. c #BC8974",
"%. c #CE8347",
"&. c #CD8155",
"*. c #D59A5D",
"=. c #E19D5C",
"-. c #D08B62",
";. c #C4946E",
":. c #D59262",
">. c #F8806E",
",. c #DDAB6E",
"<. c #D5B46F",
"1. c #F1AE60",
"2. c #EBB369",
"3. c #F6B862",
"4. c #F9C877",
"5. c #FFCC74",
"6. c #FED57E",
"7. c #817482",
"8. c #B47C86",
"9. c #E17989",
"0. c #FB7A81",
"q. c #E97F92",
"w. c #8F878B",
"e. c #988687",
"r. c #928A8D",
"t. c #938D92",
"y. c #9A9498",
"u. c #A08F8E",
"i. c #BF9A89",
"p. c #AFA59F",
"a. c #AAA5A6",
"s. c #BBABA3",
"d. c #B2A9AA",
"f. c #B8B3AD",
"g. c #B3AEB1",
"h. c #BAB6B3",
"j. c #D2909B",
"k. c #DD9C9D",
"l. c #FE8084",
"z. c #F08C93",
"x. c #FB8E9E",
"c. c #FB9898",
"v. c #CBA189",
"b. c #C2A593",
"n. c #D4AC98",
"m. c #DBB39E",
"M. c #F1A49D",
"N. c #FBB292",
"B. c #FF94A4",
"V. c #FF9AA4",
"C. c #D3A5AC",
"Z. c #C6B6A6",
"A. c #D6BCA9",
"S. c #C6BDB6",
"D. c #FAAFAC",
"F. c #F5ABB4",
"G. c #E3BEBC",
"H. c #FAB9B9",
"J. c #D6C1AD",
"K. c #C6C4B5",
"L. c #CDC7BB",
"P. c #D2C6B7",
"I. c #E3C0A7",
"U. c #FEC6BF",
"Y. c #CAC8C3",
"T. c #D4CFC5",
"R. c #D7D2C9",
"E. c #DBD7CF",
"W. c #DAD6D1",
"Q. c #DEDCD6",
"!. c #E7C4C2",
"~. c #E0DDC9",
"^. c #FBDCCA",
"/. c #E2DCD5",
"(. c #E1DED9",
"). c #E5E2DC",
"_. c #EBEDDB",
"`. c #F8E8DA",
"'. c #F3F4DD",
"]. c #EBECE4",
"[. c #EFEDE9",
"{. c #FDEDE0",
"}. c #FAF6E5",
"|. c #FEFEEB",
" X c #FEFEF2",
/* pixels */
"T.T.T.T.T.T.T.T.T.T.T.L.L.T.L.L.T.T.T.T.T.T.T.T.T.T.T.L.L.T.L.L.",
"E.).).).).).).).[.[.).T.E.E.E.).E.).).).).).[.).[.[.).T.E.E.E.).",
").).).).).).).).).).[.T.).).).).).).).).).).).).).).[.T.).).).).",
"[.).[.[.[.[.).[.[.[.[.E.).).).).[.).[.[.[.[.).[.[.[.[.E.).).).).",
"T.T.T.T.T.T.T.L.L.T.T.L.L.T.T.T.a.r.T.T.T.T.T.T.T.T.T.L.L.T.T.T.",
").).).).).).E.L.).).).).).).).).w X.a.).).).).).).).).).).).).).",
").).).).).).E.L.E.).).).).).(.5 : O.1 e R.).).).).).).).).).).).",
").E.E.E.E.E.E.L.E.E.).E.E.Y./ | F , o.; 2 W.[.[.).[.).).).E.E.E.",
"T.L.L.T.T.T.T.L.L.T.T.T.T.! { l.0.S & ..... L.T.T.T.T.T.T.T.T.T.",
"[.T.E.).).).).).).).).).Y.y z._ ( _ A   > s.e.W.).).).).).).[.).",
"[.T.E.E.).).).).).).).Q.t d  .) } F s   s.|.A.u.).).).).).).).).",
"[.T.E.E.E.E.).E.).).Q.r.E a ( D F p o q n.I.m.% E.).).).[.).[.[.",
"T.L.L.T.T.T.T.T.T.f.r /.Q.6 + X X + #.'.`.J.A.4 T.T.T.T.T.T.L.L.",
").[.).[.).[.[.[.f.! {.N.U.W.h.S.S.K.}.}.R.$.R 4 ).[.).).[.[.[.).",
").).).).).).).d.d. X^.>.c.D.|.|. X|.~.i.x g &.# ).).).).).).).).",
").).).).E.).).r.p. X XH.M.^.|.|._.Z.Y l n b @.# ).).).).).).).).",
"T.T.T.T.T.T.T.w.T v./. X X X'.P.^ c n V v * ~ 3 T.T.T.L.L.T.L.L.",
"E.).).).).).[.t.*.1.-.Z.]._.b.x z n N j = ] H.3 [.[.).T.E.E.E.).",
").).).).).).).t.@.5.4.=.;.U l M +.x & W x.x.k.# ).).[.T.).).).).",
"[.).[.[.[.[.).y.0 P 2.5.3.n M v u Z q.V.9.C L # [.[.[.E.).).).).",
"T.T.T.T.T.T.T.w.S.C.G ' 4.%.j i [ V.z.K & f :.# L.T.T.L.L.T.T.T.",
").).).).).).).t.Q `.`.8.H < W B.V.W & h M B R 3 ).).).).).).).).",
").).).).).).).t.J G j.}.!.j.B.] C u n ` m u 9 f.E.).).).).).).).",
").E.).).[.[.[.y.<.2.k Q G.F.K O l V M j $ r.T.L.E.E.).E.E.E.E.E.",
"T.T.L.L.T.T.T.y.L 4.6.*.J - h M V c @ r S.T.T.L.L.T.T.T.T.T.T.T.",
"[.L.).[.).).).(.y.9 T 6.6.N V I O 9 f.).).).).).).).).).).).[.).",
"[.L.[.).).).).).).W.7.< ,.*.u 7 g.T.E.E.).).).).).).).).).).).).",
"[.T.).).).E.).E.E.).).h.8 $ a.].[.T.E.E.E.E.).E.).).).).[.).[.[.",
"T.L.L.T.T.T.T.T.T.T.T.T.T.T.L.L.T.L.L.T.T.T.T.T.T.T.T.T.T.T.L.L.",
").).).).[.[.).).).[.).).[.[.[.).).[.).[.).[.[.[.[.[.).).).E.L.E.",
").).).).).).).).).).).).).).).).).).).).).).).).).).).).).E.L.).",
").).).).).).).).).).).).).).).).).).).).E.).).E.E.).E.E.E.E.L.)."
};
