/* XPM */
static char *_6947d23ff21459894168a77e526c0d2[] = {
/* columns rows colors chars-per-pixel */
"32 32 256 2 ",
"   c black",
".  c white",
"X  c #E5E2DC",
"o  c #FFF3E6",
"O  c #EFEDE9",
"+  c #DBD7CF",
"@  c #D4CFC5",
"#  c #CDC7BB",
"$  c #F1A2A5",
"%  c #FEC4C6",
"&  c #C59D9E",
"*  c #B59B9C",
"=  c #FC848C",
"-  c #F8959B",
";  c #F7B7BB",
":  c #CBA2A4",
">  c #E88F97",
",  c #FB9BA3",
"<  c #E87784",
"1  c #F4838E",
"2  c #DA99A0",
"3  c #E09FA6",
"4  c #E7AAB1",
"5  c #F0BBC1",
"6  c #A3898C",
"7  c #ED6073",
"8  c #F36D7E",
"9  c #FA8391",
"0  c #EC7E8C",
"q  c #F096A2",
"w  c #BB8A90",
"e  c #EB566E",
"r  c #FB6D83",
"t  c #EF687B",
"y  c #ED677A",
"u  c #F46E81",
"i  c #ED6E81",
"p  c #FF788D",
"a  c #F27486",
"s  c #FF7F91",
"d  c #E17E8E",
"f  c #F2A5B0",
"g  c #CB9099",
"h  c #D3A3AA",
"j  c #E2B3BA",
"k  c #CBA3A9",
"l  c #D6B3B8",
"z  c #E95A74",
"x  c #E86078",
"c  c #DF5C72",
"v  c #E46C81",
"b  c #E57285",
"n  c #DC7B8D",
"m  c #EB8E9F",
"M  c #B4838C",
"N  c #E9B5BE",
"B  c #B29197",
"V  c #BDA2A7",
"C  c #C2ABAF",
"Z  c #B8A6A9",
"A  c #DE526D",
"S  c #DA5A72",
"D  c #E1647C",
"F  c #E9738A",
"G  c #E3778C",
"H  c #E18396",
"J  c #E295A5",
"K  c #EC9DAD",
"L  c #BA8F98",
"P  c #B99CA2",
"I  c #E04566",
"U  c #CF4666",
"Y  c #D64F6D",
"T  c #E25473",
"R  c #DB5875",
"E  c #F26482",
"W  c #DB5E7A",
"Q  c #C95A72",
"!  c #E06F88",
"~  c #C7637A",
"^  c #E597A8",
"/  c #AC828B",
"(  c #D04768",
")  c #D54A6B",
"_  c #CA4667",
"`  c #CE4E6E",
"'  c #C84B6B",
"]  c #DB5375",
"[  c #E15F80",
"{  c #DF8098",
"}  c #B28E97",
"|  c #CD3E66",
" . c #CE4367",
".. c #CE496D",
"X. c #C74B6D",
"o. c #D05174",
"O. c #B35C73",
"+. c #A96577",
"@. c #B58995",
"#. c #C23962",
"$. c #CD446C",
"%. c #DA5279",
"&. c #9E5B6F",
"*. c #E991AA",
"=. c #AC7B89",
"-. c #A67B88",
";. c #B1959D",
":. c #B7A3A9",
">. c #CFBAC0",
",. c #C42B5C",
"<. c #C23762",
"1. c #AC3459",
"2. c #CA3E6B",
"3. c #CB4570",
"4. c #D24B75",
"5. c #D55D82",
"6. c #DAA0B3",
"7. c #C63E6B",
"8. c #B53C65",
"9. c #D0688B",
"0. c #9C697A",
"q. c #987A84",
"w. c #C6ACB5",
"e. c #C3B4B9",
"r. c #B22F60",
"t. c #B8416C",
"y. c #A96A81",
"u. c #A67687",
"i. c #AC8996",
"p. c #C0346B",
"a. c #AF3162",
"s. c #C93972",
"d. c #984F6C",
"f. c #BE4173",
"g. c #A05976",
"h. c #B0748C",
"j. c #A78694",
"k. c #AE8E9C",
"l. c #9B808C",
"z. c #8F2958",
"x. c #8A3B63",
"c. c #966E82",
"v. c #BDAEB8",
"b. c #E4E6E6",
"n. c #FFFFF7",
"m. c #FFFEF0",
"M. c #E3E1DB",
"N. c #E0DED8",
"B. c #E4E2DC",
"V. c #E0DFDC",
"C. c #FFFAED",
"Z. c #D7D5D0",
"A. c #FCF6E9",
"S. c #FFF8EA",
"D. c #DAD6CE",
"F. c #E4E1DB",
"G. c #E2DFD9",
"H. c #CFCAC1",
"J. c #D3CEC5",
"K. c #FFF7EA",
"L. c #E4E1DC",
"P. c #FFF6E9",
"I. c #FDF4E7",
"U. c #ECE8E2",
"Y. c #EEECE9",
"T. c #FFF5E7",
"R. c #FDF3E5",
"E. c #E8E5E1",
"W. c #CFCAC4",
"Q. c #E0DCD7",
"!. c #DDD9D4",
"~. c #F7EEE4",
"^. c #FFF2E5",
"/. c #FEF2E6",
"(. c #FAEFE4",
"). c #D2CCC6",
"_. c #DAD5D0",
"`. c #FFF1E4",
"'. c #FFF2E6",
"]. c #FDF0E4",
"[. c #FFEFE2",
"{. c #FEEEE1",
"}. c #FFF0E3",
"|. c #C9C1BA",
" X c #FDEEE2",
".X c #FCF0E7",
"XX c #DBD6D2",
"oX c #D2CDC9",
"OX c #FFECDF",
"+X c #FCEADE",
"@X c #FEEDE1",
"#X c #FDEDE2",
"$X c #ECE0D8",
"%X c #CDCAC8",
"&X c #FEEADD",
"*X c #FEEBDF",
"=X c #FDEBE0",
"-X c #FDE9DD",
";X c #FBE9DF",
":X c #CAC1BC",
">X c #FEE7DB",
",X c #FCE5D9",
"<X c #FEE8DD",
"1X c #FCE6DB",
"2X c #FEE9DE",
"3X c #F0E3DC",
"4X c #BDB3AE",
"5X c #C3B9B4",
"6X c #D6D0CD",
"7X c #FEE5DA",
"8X c #FEE7DC",
"9X c #FDE7DD",
"0X c #F4E0D7",
"qX c #FEE4D9",
"wX c #FDE4DA",
"eX c #FCE7DE",
"rX c #FFE3D9",
"tX c #FDE3D9",
"yX c #FBE2D9",
"uX c #BDB5B2",
"iX c #FDE3DA",
"pX c #FDE4DC",
"aX c #CCC6C4",
"sX c #FDD9CF",
"dX c #FBDBD2",
"fX c #FDDED5",
"gX c #FEE0D7",
"hX c #F6DAD2",
"jX c #DFD8D6",
"kX c #F8DFD9",
"lX c #CAC2C0",
"zX c #FDD4CB",
"xX c #B4A7A4",
"cX c #D3C9C7",
"vX c #D1C6C4",
"bX c #FCD6D0",
"nX c #FDD8D2",
"mX c #F3D1CC",
"MX c #ECCCC8",
"NX c #FCC7C2",
"BX c #F4D3D0",
"VX c #BAADAC",
"CX c #C9BDBC",
"ZX c #CFC5C4",
"AX c #F1BEBB",
"SX c #F8B7B5",
"DX c #F7C0BE",
"FX c #C3AEAD",
"GX c #FD908F",
"HX c #F6B1B1",
"JX c #FABABA",
"KX c #F5C2C2",
"LX c #F3C6C6",
"PX c #C7BBBB",
"IX c #CDC2C2",
"UX c None",
/* pixels */
"@ @ @ @ @ @ @ @ @ @ @ # # @ # # @ @ @ @ @ @ @ @ @ @ @ # # @ # # ",
"+ X X X X X X X O O X @ + + + X + X X F.G.F.O X O O X @ + + + X ",
"X X X X X X X X X X O @ X X X X X X X X X X X X X X O @ X X X X ",
"O X O O O O X O O O O + X X X X O X Y.Y.O O X O O O O + X X X X ",
"@ @ @ @ @ @ @ # # @ @ # # @ @ @ @ @ H.J.J.J.@ @ @ @ @ # # @ @ @ ",
"X X X X X X + # X X X X X X G.6XvXG.%XV.X X X X X L.X X X X X X ",
"X X X X X X + # + X X oXCXIXC } M C :.>.w.jXX X M.X X X X X X X ",
"X + + + + + + # D.:XFXw g k j bX@X0X$XU.e.l.>.b.B.O X X X + + + ",
"@ # # @ @ @ @ xX6 : DXbXP.n.m.T.o o o o /.3X>.v.uX@ @ @ @ @ @ @ ",
"O @ + X X F.PXM 2 gXm.m.{.fXgX>XgXtXtX7X*Xo ~.l } !.X X X X O X ",
"O @ + + X vXL sXS.^.2XfXfXiX<X[.[.[.[.@X8XtX{.>.v @.XXX X X X X ",
"O @ + + FXM MXK.I.2X@X`.'.o o o o o o ^.^.[.8XMX, W / XXO X O O ",
"@ # # |.& hXP. X8X`.o o o o o o o o o o `.^.`.bXJX% 3 B H.@ # # ",
"X O G.V mXC./.}.<Xo o o o o o o o o o o o o #XJXfXA.S.g PXO O X ",
"X X uXh % ^ N -X@Xo o o o o o o o o o o o o ^.zXBXJ 5 KX* _.X X ",
"X X / J m m H LX=Xo o o o ^.].o o o o o o o o iX4 q J 5 P aXX X ",
"@ @ 0.2 ; b m iXyX^.o o o o `./.o o o o o o o tXLXb m KXM 5X# # ",
"+ X 0.Q gX(.;XT.tX[.o o o o o o o o o o o `.7X2X].kXP.f +.CX+ X ",
"X X Z 1.9 bX}.9Xo gX&X^.o o o o o o o o @XqX*X^. X`.DX] d.ZXX X ",
"O B.e.1.I b mX`.=X`.<XqX2X`.o o o o `.<XtX[.o eXT.AXR ,.u._.X X ",
"@ @ 4X&.A U n sX2X+XT.`.&X>X8X2X2X>X7X&X^.o #X;XzX~ <.#.* @ @ @ ",
"X X N.=.x ` _ 1 SXsX,X/.K.T.{.*X*X{.o T.=X*X>XSXv 1.7.| V X X X ",
"X X G.} $.4.S 7 S > NXrX&X X]. X(.^.OX1XsXNXd  .T X.p.r.Z X X X ",
"X + X cXh.z.D = _ Y 1 q $ HXdX.XR.dXHX, - 0 <.#.= o.z.i.W.+ + + ",
"@ @ # # |.q.' s W S 8 Y ..x - ; JXn ( e z T $.%.p 8.l.H.@ @ @ @ ",
"O # X O X Z.=.3.3.< GX) 9.f a y t $.9.G T t [ s.2.-.Q.X X X O X ",
"O # O X X X oXc.z.D - u { 6.! t z G N j 5.E 7.x.j.6XX X X X X X ",
"O @ X X X + X ).xX+.Q i E 4.D = a F K *.f.8.g.VX!.B.X X O X O O ",
"@ # # @ @ @ @ @ J.VX6 +.` ( c 8 r 2.t.a.d.q.uX@ @ @ @ @ @ @ # # ",
"X X X X O O X X X O Q.aX:.;.=.O.O.y.i.k.lXE.O O O O X X X + # + ",
"X X X X X X X X X X X B.X X X X L.X X X X X X X X X X X X + # X ",
"X X X X X X X X X X X X X X X X X X X X + X X + + X + + + + # X "
};
