/* XPM */
static char *_b1abdf445f040a6c3f75958cedadde2d2ij0mQvTPlpVSh9[] = {
/* columns rows colors chars-per-pixel */
"32 32 5 1 ",
"  c #CDC7BB",
". c #D4CFC5",
"X c #DBD7CF",
"o c #E5E2DC",
"O c #EFEDE9",
/* pixels */
"...........  .  ...........  .  ",
"XoooooooOOo.XXXoXoooooOoOOo.XXXo",
"ooooooooooO.ooooooooooooooO.oooo",
"OoOOOOoOOOOXooooOoOOOOoOOOOXoooo",
".......  ..  ..............  ...",
"ooooooX oooooooooooooooooooooooo",
"ooooooX Xooooooooooooooooooooooo",
"oXXXXXX XXoXXXXXoXooOOOOoOoooXXX",
".  ....  .........  ............",
"O.XoooooooooooOoO oOooooooooooOo",
"O.XXooooooooooooO Oooooooooooooo",
"O.XXXXoXooooOoOOO.oooXoXXoooOoOO",
".  ...........  .  ...........  ",
"oOoOoOOOOOoooX XooooOOoooOooOOOo",
"oooooooooooooX ooooooooooooooooo",
"ooooXooXXoXXXX ooooooooooooooooo",
"...........  .  ...........  .  ",
"XoooooOoOOo.XXXoXoooooooOOo.XXXo",
"ooooooooooO.ooooooooooooooO.oooo",
"OoOOOOoOOOOXooooOoOOOOoOOOOXoooo",
"...........  ..........  ..  ...",
"ooooooooooooooooooooooX oooooooo",
"ooooooooooooooooooooooX Xooooooo",
"oXooOOOOoOoooXXXoXXXXXX XXoXXXXX",
"..  .............  ....  .......",
"O oOooooooooooOoO.XoooooooooooOo",
"O OoooooooooooooO.XXoooooooooooo",
"O.oooXoXXoooOoOOO.XXXXoXooooOoOO",
".  ...........  .  ...........  ",
"ooooOOoooOooOOOooOoOoOOOOOoooX X",
"oooooooooooooooooooooooooooooX o",
"ooooooooooooooooooooXooXXoXXXX o"
};
