/* XPM */
static char *_34deb4137774098bb1df3c7feead29cnY5Bqu5Sw5CMWtp2[] = {
/* columns rows colors chars-per-pixel */
"32 32 212 2 ",
"   c #47000D",
".  c #60001B",
"X  c #560225",
"o  c #620023",
"O  c #640127",
"+  c #761129",
"@  c #6A0232",
"#  c #740332",
"$  c #7B0839",
"%  c #661C47",
"&  c #492B45",
"*  c #512A50",
"=  c #4B325F",
"-  c #632952",
";  c #712F50",
":  c #563B62",
">  c #603962",
",  c #66465E",
"<  c #765974",
"1  c #725C7C",
"2  c #840C3C",
"3  c #8B0B3B",
"4  c #900D35",
"5  c #880E41",
"6  c #8B1242",
"7  c #8F1841",
"8  c #951646",
"9  c #852851",
"0  c #94295B",
"q  c #8D3151",
"w  c #AA2551",
"e  c #A83759",
"r  c #B23055",
"t  c #8A3B63",
"y  c #B22F60",
"u  c #AF3162",
"i  c #B53C65",
"p  c #C3315C",
"a  c #C53B67",
"s  c #D13D61",
"d  c #C93972",
"f  c #E43C60",
"g  c #9D566D",
"h  c #854F72",
"j  c #8F5171",
"k  c #BD526D",
"l  c #BE4173",
"z  c #B75770",
"x  c #B35C73",
"c  c #9C697A",
"v  c #A96577",
"b  c #CC4567",
"n  c #CD446C",
"m  c #C74B6D",
"M  c #CD4C6D",
"N  c #D74969",
"B  c #D9516E",
"V  c #CB4570",
"C  c #D24B75",
"Z  c #C95A72",
"A  c #D75276",
"S  c #DB5A73",
"D  c #DC5E79",
"F  c #E04866",
"G  c #EB566E",
"H  c #E25473",
"J  c #E95C75",
"K  c #D3647A",
"L  c #EC6477",
"P  c #E3637C",
"I  c #EF697C",
"U  c #F26B7C",
"Y  c #506287",
"T  c #6F6D8E",
"R  c #707C9A",
"E  c #987A84",
"W  c #93708A",
"Q  c #827A94",
"!  c #A67389",
"~  c #A87789",
"^  c #AC7B89",
"/  c #B67A8B",
"(  c #D55D82",
")  c #E15F80",
"_  c #D0688B",
"`  c #C4798B",
"'  c #D9798B",
"]  c #E66E83",
"[  c #F56982",
"{  c #E67789",
"}  c #F27687",
"|  c #FC7B8D",
" . c #FF7F91",
".. c #76839D",
"X. c #628AA9",
"o. c #7886A4",
"O. c #7F9BB3",
"+. c #8D919F",
"@. c #AD828B",
"#. c #A3898C",
"$. c #B5838B",
"%. c #AB8996",
"&. c #B38C96",
"*. c #BB8D94",
"=. c #B3979B",
"-. c #858DA3",
";. c #9688A0",
":. c #8995AC",
">. c #9898A8",
",. c #839DB6",
"<. c #A798A7",
"1. c #A29DA4",
"2. c #B195A8",
"3. c #86A4BC",
"4. c #9AA8B9",
"5. c #A6A4A6",
"6. c #A8A5AD",
"7. c #B5A5A5",
"8. c #BDA2A7",
"9. c #B8A6A9",
"0. c #BAADAC",
"q. c #BDB3AE",
"w. c #A9A6B8",
"e. c #B7A9B8",
"r. c #BDB5B2",
"t. c #BDB9B4",
"y. c #B2B3BA",
"u. c #CD8F98",
"i. c #DB8297",
"p. c #C8979D",
"a. c #F3838E",
"s. c #FC848C",
"d. c #FD908F",
"f. c #E68793",
"g. c #EC8D9E",
"h. c #FB8895",
"j. c #E1969F",
"k. c #EC949F",
"l. c #F7969B",
"z. c #C79FAA",
"x. c #D79AA2",
"c. c #E394A4",
"v. c #E89AA7",
"b. c #F69BA5",
"n. c #CBA3A7",
"m. c #C2ADAE",
"M. c #D7A2AF",
"N. c #C6BAB9",
"B. c #EBA6AD",
"V. c #F4A2A4",
"C. c #F3A9AE",
"Z. c #F4A8B1",
"A. c #E4B4BB",
"S. c #EAB2BB",
"D. c #F9B7B6",
"F. c #F3BBBC",
"G. c #CDC7BB",
"H. c #C8C4BF",
"J. c #F8C2BD",
"K. c #92ACC2",
"L. c #8AB4CC",
"P. c #9CBAC9",
"I. c #A3BECE",
"U. c #ACBACA",
"Y. c #B8B9C7",
"T. c #EFBAC1",
"R. c #F0BBC1",
"E. c #A6C0CE",
"W. c #ACC4D5",
"Q. c #BAC9D6",
"!. c #BCD0D9",
"~. c #AAD4E2",
"^. c #B6D7E3",
"/. c #CCC4C3",
"(. c #CECAC3",
"). c #C2C6CD",
"_. c #D1C6C4",
"`. c #D4CFC5",
"'. c #D3CDCA",
"]. c #D5D2CE",
"[. c #DBD7CF",
"{. c #C6D2DD",
"}. c #D7D5D0",
"|. c #DAD6D2",
" X c #DEDAD5",
".X c #EECAC6",
"XX c #F5C2C3",
"oX c #FDC5C4",
"OX c #FBCFCA",
"+X c #F3D1CC",
"@X c #FCD6CD",
"#X c #FDD8CF",
"$X c #E0DCD7",
"%X c #E1DED8",
"&X c #F5D6D1",
"*X c #FED7D2",
"=X c #FDDAD2",
"-X c #FCDFD9",
";X c #E5E2DC",
":X c #FFE4D7",
">X c #FDE4DA",
",X c #FDEADE",
"<X c #C7DAE4",
"1X c #D1E0EF",
"2X c #E7E5E2",
"3X c #E8E6E2",
"4X c #EFEDE9",
"5X c #FCEDE2",
"6X c #FEF2E5",
"7X c #FEF6E9",
"8X c #FFF9EB",
"9X c #FFFFF3",
/* pixels */
"`.`.`.`.`.`.`.`.`.`.`.G.G.`.G.G.`.`.`.`.`.`.`.`.`.`.`.G.G.`.G.G.",
"[.;X;X;X;X;X;X;X4X4X;X`.[.[.[.;X[.;X;X}.1.6.2X;X4X4X;X`.[.[.[.;X",
";X;X;X;X;X;X;X;X;X;X4X`.;X;X;X;X;X;X;X1.{.:.(.;X X%X4X`.;X;X;X;X",
"4X;X4X4X4X4X;X4X4X4X4X[.;X;X;X;X4X;X2X1.W.+.;X|.6.y.3X[.;X;X;X;X",
"`.`.`.`.`.`.`.G.G.`.`.G.G.`.`.`.`.`.t.y.K.5.(.>.1X:.r.G.G.`.`.`.",
";X;X;X;X;X;X[.G.;X;X;X;X;X;X%X'._.%X5.{.<Xy./.).,.+.%X;X;X;X;X;X",
";X;X;X;X;X;X[.G.[.;X;X'.N./.m.&.@.8.;.U.-.Y.).{...].;X;X;X;X;X;X",
";X[.[.[.[.[.[.G.[.H.m.*.u.n.A.OX>Xp.Q ^.Q < w.W.>.4X;X;X;X[.[.[.",
"`.G.G.`.`.`.`.7.#.n.J.*X7X9X9X7X9X[.4.,.U.w.>.O.5.`.`.`.`.`.`.`.",
"4X`.[.;X;X;XN.$.x.-X9X8X5X=X=X=X:X<.!...< w.^.R %.|.;X;X;X;X4X;X",
"4X`.[.[.;X_.*.=X7X6X>XJ.V.a.} | L ~ P.W.2.E L.1 D &.}.;X;X;X;X;X",
"4X`.[.[.m./ .X7X7X=Xl.L B b s f 8 e.3.W 2.Q.3.c h.D @.}.4X;X4X4X",
"`.G.G.H.p.&X7X5X#Xa.F p w 8 8 4 - P.<X<.h I.o.' b.oXv.&.(.`.G.G.",
";X4X%X8.+X8X6X5XV.N w 6 $ 2 3 o < P.1 <.Q.^.1 h.*X7X7Xu.N.4X4X;X",
";X;Xr.M.oXv.S.>Xl.w $ 2 2 6 3 O -.^.;.> ,.L.h D.&Xc.T.XX=.}.;X;X",
";X;X@.c.g.g.f.F.v.7 # 6 5 2 O ; E.R >.U.I.Y q J.i.b.c.R.8./.;X;X",
"`.`.c x.D.] g.:XB.7 # 5 $ # . 1 ^.:.* >.~.= e =XS.] k.XX$.N.G.G.",
"[.;Xc Z :X5X,X7X#Xz # @ @ o X 6.O.4.w.4.X.% f.6X5X-X7XC.v N.[.;X",
";X;X0.r s.#X5X,X6XOXk # X   & W.K.: T W.Q ` D.XX,X6XJ.A g /.;X;X",
"4X;XN.e F { +X6X5X6XOX' e + , o.w.2.h ~ A.*Xc.B.7XF.S p ! }.;X;X",
"`.`.q.g B b ' #X,X,X7X7X@Xv.x.z./ j.oX=X6X5X.X>X@XK a a =.`.`.`.",
";X;X%X^ J M b a.D.#X>X6X8X9X6X,X6X6X7X7X>X>X:XD.] r a s 8.;X;X;X",
";X;X%X&.n C S L S f.oX:X,X5X5X5X6X6X,X>X#XoX{ b H m a y 9.;X;X;X",
";X[.;X'./ 0 P s.b B a.k.V.D.=X6X7X=XC.b.l.{ a a s.C 0 %.(.[.[.[.",
"`.`.G.G.H.E m  .D S U B M P l.F.D.' N G J H n A | i #.(.`.`.`.`.",
"4XG.;X4X;X}.^ V n { d.N _ Z.} I I n _ { H I ) d a ~  X;X;X;X4X;X",
"4XG.4X;X;X;X'.W 9 P l.[ i.M.] I J { A.A.( [ a t %.].;X;X;X;X;X;X",
"4X`.;X;X;X[.;X`.7.v Z ] [ C P s.} { v.c.l i g 0. X;X;X;X4X;X4X4X",
"`.G.G.`.`.`.`.`.`.0.#.v M b S U [ a l u j E q.`.`.`.`.`.`.`.G.G.",
";X;X;X;X4X4X;X;X;X4X$X/.7.=.^ x z ! %.&./.2X4X4X4X4X;X;X;X[.G.[.",
";X;X;X;X;X;X;X;X;X;X;X;X;X;X;X;X;X;X;X;X;X;X;X;X;X;X;X;X;X[.G.;X",
";X;X;X;X;X;X;X;X;X;X;X;X;X;X;X;X;X;X;X;X[.;X;X[.[.;X[.[.[.[.G.;X"
};
