/* XPM */
static char *_203061828a5442fc991cc0cebbba37cDfn5BgAwHbkwutmf[] = {
/* columns rows colors chars-per-pixel */
"32 32 196 2 ",
"   c #B67EA4",
".  c #E05F91",
"X  c #DF648C",
"o  c #DE688F",
"O  c #DD778C",
"+  c #D76796",
"@  c #DE6594",
"#  c #DA6C94",
"$  c #D76A98",
"%  c #CE7391",
"&  c #CC769C",
"*  c #C6799B",
"=  c #CD7C9C",
"-  c #D47297",
";  c #DE7194",
":  c #D27C96",
">  c #DE7C90",
",  c #D4759A",
"<  c #DC739C",
"1  c #D37A9C",
"2  c #DB7B9C",
"3  c #E16B8E",
"4  c #E0718E",
"5  c #E07C8E",
"6  c #E16393",
"7  c #E26B95",
"8  c #E56C99",
"9  c #E37393",
"0  c #E37C93",
"q  c #E3749A",
"w  c #E27B9C",
"e  c #EC7C9C",
"r  c #C57CA0",
"t  c #CD7EA3",
"y  c #D07CA1",
"u  c #E26FA2",
"i  c #E17DA2",
"p  c #B5879E",
"a  c #B9879F",
"s  c #B0899C",
"d  c #AE86A4",
"f  c #AD88A6",
"g  c #AE82AB",
"h  c #B485A3",
"j  c #BE81A3",
"k  c #B48AA6",
"l  c #BB8BA4",
"z  c #B486A9",
"x  c #B887AD",
"c  c #B68EAB",
"v  c #BD8BAB",
"b  c #B194A7",
"n  c #BE90A3",
"m  c #B692AE",
"M  c #BC92AB",
"N  c #BC9AAA",
"B  c #B484B0",
"V  c #BA8EB1",
"C  c #B694B1",
"Z  c #BC96B3",
"A  c #B79BB1",
"S  c #BC99B5",
"D  c #CC8F97",
"F  c #C3839C",
"G  c #CC829D",
"H  c #C48A9E",
"J  c #D5829B",
"K  c #DC829C",
"L  c #D48C9D",
"P  c #CE919D",
"I  c #E58494",
"U  c #EA8695",
"Y  c #E68996",
"T  c #E4819B",
"R  c #EB849A",
"E  c #E68B9A",
"W  c #E98C9A",
"Q  c #F2869E",
"!  c #E0909D",
"~  c #EB939E",
"^  c #C485A5",
"/  c #CC83A4",
"(  c #C38BA4",
")  c #CB8DA5",
"_  c #C18BAA",
"`  c #D386A1",
"'  c #DE86A0",
"]  c #D38CA3",
"[  c #C294A5",
"{  c #CE94A4",
"}  c #CE98A6",
"|  c #C396AD",
" . c #CD93A9",
".. c #C39CAD",
"X. c #CB9CAB",
"o. c #D493A0",
"O. c #DA94A3",
"+. c #D29AA3",
"@. c #DE9AA3",
"#. c #D696AC",
"$. c #D59EAB",
"%. c #C497B2",
"&. c #C39CB2",
"*. c #E38DA1",
"=. c #F18BA6",
"-. c #E793A0",
";. c #ED96A1",
":. c #E29CA3",
">. c #EE9BA4",
",. c #F395A1",
"<. c #F39DA5",
"1. c #C4A1AF",
"2. c #CCA2AE",
"3. c #D5A2AE",
"4. c #DBA4AC",
"5. c #D9A8AF",
"6. c #C5A4B4",
"7. c #C8A5B0",
"8. c #CEACB5",
"9. c #CFA7B8",
"0. c #C7ACB9",
"q. c #CCABBB",
"w. c #D3A5B3",
"e. c #D5ADB3",
"r. c #DAAEB4",
"t. c #D6A4B8",
"y. c #CFB4BF",
"u. c #D4B1B6",
"i. c #D2B4BA",
"p. c #DBB4BA",
"a. c #D5BCBE",
"s. c #DDBDBD",
"d. c #E1A2A6",
"f. c #E1A3AB",
"g. c #EBA4AA",
"h. c #E3ADAF",
"j. c #ECACAE",
"k. c #F1A1A6",
"l. c #F3A5AB",
"z. c #F4AAAE",
"x. c #EBACB0",
"c. c #F5AEB1",
"v. c #E4B4B4",
"b. c #EEB2B3",
"n. c #ECBAB6",
"m. c #E4BDBC",
"M. c #ECBDBB",
"N. c #F6B3B4",
"B. c #F8B5B5",
"V. c #F7B8B7",
"C. c #F8B8B7",
"Z. c #F6B6B8",
"A. c #F9B6B8",
"S. c #F5BCBB",
"D. c #F9BBBA",
"F. c #DDC3BF",
"G. c #E3C1BE",
"H. c #F1C2BE",
"J. c #F9C1BF",
"K. c #C9B9C2",
"L. c #D2BEC0",
"P. c #E4BFC1",
"I. c #D6C5C1",
"U. c #DEC2C1",
"Y. c #DDC8C4",
"T. c #D3C7C9",
"R. c #E2C4C3",
"E. c #ECC6C2",
"W. c #E3CCC7",
"Q. c #EDCAC4",
"!. c #EECEC9",
"~. c #F3C5C2",
"^. c #FAC5C2",
"/. c #F3CAC5",
"(. c #FBCAC6",
"). c #F1CDC9",
"_. c #FBCDC9",
"`. c #E3D0C7",
"'. c #ECD4CB",
"]. c #F4D3CC",
"[. c #FBD2CD",
"{. c #F6D8CF",
"}. c #FCD8CF",
"|. c #EFD9D0",
" X c #F7D6D2",
".X c #FBD7D2",
"XX c #F1DAD3",
"oX c #F5DBD4",
"OX c #FBDCD4",
"+X c #F7DFD9",
"@X c #F8DFD8",
"#X c #F5E3DB",
"$X c #F9E1DA",
"%X c #F8E5DC",
"&X c #F3E5E0",
"*X c #F8ECE5",
/* pixels */
"$X$X$X X*.R.#X+X+X@X.XU 0.#X@X+X+X$X$Xf.K.&X+X$X$XOXT T.*X%X%XXX",
"C.C.C.k.w Z.C.V.C.B.<.# R._.C.C.D.V.c.L '.].C.C.C.l.# W.(.D.J.>.",
"S.N.z.>.* b.D.N.C.C.~ - h.^.l.z.C.N.k.P H.N.C.N.N.<.& G.D.N.N.I ",
">.C.l.Y F <.k.l.l.;.Y % @.N.k.>.>.<.9 H N.W l.N.>.~ h j.l.>.l.E ",
"< 9 < w M ` 2 T # - ` M [ K ' 7 $ K ] C } i 2 ; - 2 m o.w 2 < G ",
": S E.Q.).Q.Q.>.s L.].).XX!.n.F y.].).).).!.<.p i.E.XX|.Q.E.>.= ",
"9 2.}.N.D.C.k.Y o.%XD.C.^.N.l.T !.D.z.D.V.N.~ L ].J.^.J.N.C.l.7 ",
"7 7.^.l.N.l.l.Y X.H.l.c.N.N.W K M.l.V.c.N.c.Y { /.C.c.l.c.C.l.< ",
"r N e 3 I U I 7 n Q X I <.e O G *.4 W ~ I I 6 v E 0 W I e E 0 t ",
"Z 1.w.3.v +.5.....w.3.H X.w.X.&.9.w.w.n M w.w.9.w.$.z 6.$.$.q.6.",
"#.E.(.[.E.{.OX<.t.@X_.E.)._.z.#.).^.^.n.E.[.^.(.^.S.c.H.J.OX^.=.",
"/ M.N.C.D.N.l.9 X.].Z.N.V.C.~ ^ n.z.z.C.D.C.>.8 l.C.C.V.N.C.<.# ",
") M.N.N.N.N.;.9 ..^.Z.k.Z.l.;.( n.l.C.l.N.N.;.1 z.C.N.C.A.N.~ 7 ",
"h 4.@ R l.q 8 & c T @ >.~ 9 , h ! 7 U T q 7 @ z ` 7 q 8 0 9 6 = ",
"u.u.u.f.( %.i.i.u.e.5.l M r.i.i.u.r.3.z &.p.i.i.i.e.l C u.u.i.8.",
"^._.^.N.H G..XP._.^.C.9 X.[.[._.^.D.Z.l `.[.J.^.^.J.1 a.(.OX_.W ",
"N.S.l.W G M.D.N.V.c.~ 9 w._.c.N.N.z.I | ].C.N.C.c.>.1 R.^.l.l.9 ",
"l.c.c.;.( b.k.l.l.>.<.1 d.N.>.l.c.l.E M M.>.l.N.;.>.^ v.c.>.E I ",
"` / y / z ( / t y y / x k t t t = t _ g v y t G = / B l t t = H ",
"l s.M.m.M.b.n.g.[ Y.m.n.n.M.j.l a.M.M.M.m.G.-.V U.m.R.G.m.x.e E ",
"( E.D.C.D.C.l.W } oXD.D.D.D.~ H '.V.C.D.Z.N.W | {.C.C.C.C.l.0 > ",
"_ ~.N.c.c.N.>.0 &.^.l.N.c.N.~ M Q.A.l.l.N.l.w ../.N.c.c.N.l.q O ",
"k +.+ e ;.R 7 1 m :.. q U 9 , f @.3 e >.9 8 t c @.7 ~ E 6 8 & # ",
"s.m.m.f.z w.P.m.s.s.p.l &.P.s.s.s.m.4.h N p.U.s.s.p.z S R.m.U.r.",
"D.D.C.N.G W.^.(.D.C.l.: F.[.D.J.D.D.z.n '.^.(.^.^.D.: I._.[.^.E ",
"l.C.c.0 H E.C.V.C.c.I : v.^.l.z.l.>.I M ].N.l.N.N.W j m.N.C.l.9 ",
"k.k.W 0 h b.W <.>.>.Y F v.c.Y ~ W ;.7 M ~.;.Y <.l.E   v.~ Y <.0 ",
"= G ]  .S 2.) G = y O.S 6.L { * : O.%.A 7.] ` : =  .S 1.] ` , G ",
"a u.].].~.~.S.< m E.~.~.~.).c.d i.).).).~.).<.f i.].].).).^.,.z ",
"( ~.<.C.<.>.~ o ..].~ <.,.>.Y H Q.c.,.,.,.<.5 } /.<.<.,.l.,.0 / ",
"M n.W I I I Y @ N S.E ~ W ~ u l b.W ~ ~ Y E # [ c.>.I U I U ; v ",
"b X.J ) J : / ( C +.= 1 2 = ( C +., 2 K , , / b D = , # < , & M "
};
